<?xml version="1.0" standalone="no"?><!DOCTYPE svg PUBLIC "-//W3C//DTD SVG 1.1//EN"
        "http://www.w3.org/Graphics/SVG/1.1/DTD/svg11.dtd">
<svg t="1681442866951" class="icon" viewBox="0 0 1024 1024" version="1.1" xmlns="http://www.w3.org/2000/svg" p-id="2055"
     width="200" height="200">
  <path d="M347.136 80.896c-17.408 10.24-17.92 19.968-2.56 42.496 11.264 16.896 13.312 17.408 60.416 23.04 27.136 3.072 51.712 7.168 54.784 9.216 3.584 2.048 6.144 12.8 6.144 24.064v20.48l-11.264-13.312c-24.064-27.648-85.504-30.208-155.136-6.656-46.08 15.36-48.64 15.872-60.928 7.168-7.168-4.608-18.944-19.968-26.112-33.792-7.168-14.336-14.848-25.6-16.896-25.6-2.048 0-9.216 4.608-16.384 10.24l-12.8 9.728 15.36 29.696c8.704 16.384 21.504 32.768 29.184 37.376 14.848 8.192 28.16 5.632 75.776-13.312 34.304-13.824 107.52-12.8 126.976 1.536 7.68 5.632 14.336 14.848 15.36 19.968 5.12 29.696 13.312 50.176 29.696 73.728 10.24 14.336 17.408 27.136 16.384 28.16-2.048 2.048-134.656-34.304-174.08-48.128l-29.696-10.24v22.528c0 12.288 4.608 36.864 10.24 54.784 5.632 17.408 10.24 33.792 10.24 35.328 0 3.584-7.168 2.56-91.136-8.704-34.816-4.608-64-7.168-65.536-5.632-1.024 1.024 2.56 16.896 8.192 34.816 12.8 42.496 44.544 90.624 88.064 134.144 19.456 18.944 34.816 35.84 34.816 36.864 0 1.536-18.432 16.384-40.96 32.768a706.8032 706.8032 0 0 1-160.256 90.112c-23.04 9.216-41.984 19.968-41.984 23.552 0 10.24 79.36 76.288 124.416 103.424 178.176 108.032 392.192 125.44 546.304 45.568 25.6-13.312 49.664-32.256 84.48-67.584 73.728-73.728 120.32-160.256 147.968-272.896l14.336-56.832 22.528-6.144c22.528-5.632 22.528-5.632 8.704-11.264-18.944-7.68-21.504-14.848-6.656-18.432 6.656-1.536 18.944-5.632 26.624-8.704 13.824-5.632 13.824-5.632-16.896-15.36l-31.232-9.728-6.144-30.208c-13.312-67.584-65.536-134.656-126.464-162.816-83.968-38.4-189.44-20.992-262.144 42.496-14.336 12.288-27.136 22.528-28.672 22.528-6.656 0-18.432-56.32-18.432-89.6 0-48.64-5.632-53.76-64-59.392-24.576-2.56-46.592-5.632-49.152-7.68-2.56-1.536-9.216-11.776-14.848-23.04-5.632-10.752-10.752-19.968-11.776-19.968-0.512 0-7.168 4.096-14.848 9.216z m499.2 255.488l16.384 8.704-15.872 3.072c-21.504 4.608-27.648 9.216-33.28 24.064-5.632 14.336 5.12 38.912 20.48 47.616 14.848 7.68 37.376 6.144 51.2-3.072 10.24-7.168 11.264-11.776 9.216-28.16-1.536-11.264-0.512-18.944 2.048-16.896 2.56 1.536 4.608 10.752 4.608 20.48 0 25.6-18.432 43.008-46.592 43.008-54.272 0-93.696-49.664-68.096-86.016 14.848-21.504 35.328-25.6 59.904-12.8z m33.28 26.624c8.192 5.12 6.656 21.504-2.048 24.576-3.584 1.024-9.728-2.048-14.336-6.656-6.656-6.144-7.168-9.728-2.56-15.36 6.656-8.192 9.728-8.704 18.944-2.56z"
        fill="#1195db" p-id="2056"></path>
</svg>